<?xml version="1.0" standalone="no"?><!DOCTYPE svg PUBLIC "-//W3C//DTD SVG 1.1//EN" "http://www.w3.org/Graphics/SVG/1.1/DTD/svg11.dtd"><svg class="icon" width="200px" height="200.00px" viewBox="0 0 1024 1024" version="1.1" xmlns="http://www.w3.org/2000/svg"><path d="M191.1296 789.9136h-6.7072c-17.1008 0-30.9248-13.8752-30.9248-30.9248V328.0384c0-17.1008 13.8752-30.9248 30.9248-30.9248h6.7072c17.1008 0 30.9248 13.8752 30.9248 30.9248v430.9504c0 17.1008-13.824 30.9248-30.9248 30.9248z" fill="#FFB47A" /><path d="M306.5856 866.3552c-24.8832 0-45.1072-20.1728-45.1072-45.1072V242.176c0-24.8832 20.1728-45.1072 45.1072-45.1072 24.8832 0 45.1072 20.1728 45.1072 45.1072v579.072c0 24.9344-20.224 45.1072-45.1072 45.1072z" fill="#F46EAB" /><path d="M880.64 789.9136h6.7072c17.1008 0 30.9248-13.8752 30.9248-30.9248V328.0384c0-17.1008-13.8752-30.9248-30.9248-30.9248H880.64c-17.1008 0-30.9248 13.8752-30.9248 30.9248v430.9504c0 17.1008 13.824 30.9248 30.9248 30.9248z" fill="#FFB47A" /><path d="M765.184 866.3552c24.8832 0 45.1072-20.1728 45.1072-45.1072V242.176c0-24.8832-20.1728-45.1072-45.1072-45.1072-24.8832 0-45.1072 20.1728-45.1072 45.1072v579.072c0 24.9344 20.1728 45.1072 45.1072 45.1072z" fill="#F46EAB" /><path d="M384.3584 512h294.7584v65.5872H384.3584z" fill="#63CCFC" /><path d="M944.5888 468.1216h-17.408V325.0688c0-36.864-30.0032-66.9184-66.9184-66.9184-13.312 0-25.7536 3.9424-36.1984 10.7008v-6.9632c0-44.1856-35.9424-80.1792-80.1792-80.1792s-80.1792 35.9424-80.1792 80.1792v206.2336H367.0528V261.888c0-44.1856-35.9424-80.1792-80.1792-80.1792s-80.1792 35.9424-80.1792 80.1792v6.9632a66.33472 66.33472 0 0 0-36.1984-10.7008c-36.864 0-66.9184 30.0032-66.9184 66.9184v143.0528h-16.2304c-19.1488 0-34.7648 15.5648-34.7648 34.7648v55.3472c0 19.1488 15.5648 34.7648 34.7648 34.7648h16.2304v145.4592c0 36.864 30.0032 66.9184 66.9184 66.9184 13.312 0 25.7536-3.9424 36.1984-10.7008v7.0144c0 44.1856 35.9424 80.1792 80.1792 80.1792s80.1792-35.9424 80.1792-80.1792v-208.64h296.704v208.64c0 44.1856 35.9424 80.1792 80.1792 80.1792s80.1792-35.9424 80.1792-80.1792v-7.0144c10.4448 6.7584 22.8352 10.7008 36.1984 10.7008 36.864 0 66.9184-30.0032 66.9184-66.9184v-145.4592h17.408c19.1488 0 34.7648-15.5648 34.7648-34.7648V502.8352c-0.1024-19.1488-15.6672-34.7136-34.816-34.7136zM87.3984 562.2272c-2.2016 0-4.0448-1.792-4.0448-4.0448V502.8352c0-2.2016 1.792-4.0448 4.0448-4.0448h16.2304v63.3856h-16.2304z m83.1488 212.3264c-19.968 0-36.1984-16.2304-36.1984-36.1984V325.0688c0-19.968 16.2304-36.1984 36.1984-36.1984s36.1984 16.2304 36.1984 36.1984v413.3376c-0.0512 19.9168-16.2816 36.1472-36.1984 36.1472z m165.7856 26.9824c0 27.2896-22.1696 49.4592-49.4592 49.4592s-49.4592-22.1696-49.4592-49.4592V261.888c0-27.2896 22.1696-49.4592 49.4592-49.4592s49.4592 22.1696 49.4592 49.4592v539.648z m30.72-239.3088V498.8416h296.704v63.3856H367.0528z m426.3424 239.3088c0 27.2896-22.1696 49.4592-49.4592 49.4592s-49.4592-22.1696-49.4592-49.4592V261.888c0-27.2896 22.1696-49.4592 49.4592-49.4592s49.4592 22.1696 49.4592 49.4592v539.648z m103.0656-63.1296c0 19.968-16.2304 36.1984-36.1984 36.1984s-36.1984-16.2304-36.1984-36.1984V325.0688c0-19.968 16.2304-36.1984 36.1984-36.1984s36.1984 16.2304 36.1984 36.1984v413.3376z m52.1216-180.224c0 2.2016-1.792 4.0448-4.0448 4.0448h-16.2304V498.8416h16.2304c2.2016 0 4.0448 1.792 4.0448 4.0448v55.296z" fill="#333333" /></svg>