<?xml version="1.0" standalone="no"?><!DOCTYPE svg PUBLIC "-//W3C//DTD SVG 1.1//EN" "http://www.w3.org/Graphics/SVG/1.1/DTD/svg11.dtd"><svg class="icon" width="200px" height="200.00px" viewBox="0 0 1024 1024" version="1.1" xmlns="http://www.w3.org/2000/svg"><path d="M929.962667 787.456H103.253333c-20.650667 0-37.546667-16.896-37.546666-37.546667v-150.016c0-94.037333 76.629333-170.666667 170.666666-170.666666H797.013333c94.037333 0 170.666667 76.629333 170.666667 170.666666v150.357334c-0.341333 20.48-17.237333 37.205333-37.717333 37.205333zM236.373333 463.36c-75.264 0-136.533333 61.269333-136.533333 136.533333v150.016c0 1.877333 1.536 3.413333 3.413333 3.413334h826.709334c2.218667 0 3.584-1.877333 3.584-3.584v-149.845334c0-75.264-61.269333-136.533333-136.533334-136.533333H236.373333z"  /><path d="M231.424 608.256m-66.56 0a66.56 66.56 0 1 0 133.12 0 66.56 66.56 0 1 0-133.12 0Z" fill="#7DE5DB" /><path d="M869.205333 463.36H164.010667l67.754666-317.098667c8.192-37.888 42.496-64.341333 83.797334-64.341333h406.016c38.912 0.512 68.608 24.064 79.530666 63.317333l0.170667 1.024 67.925333 317.098667z m-662.869333-34.133333h620.714667L768.170667 153.941333c-6.997333-24.064-23.552-37.546667-46.933334-37.888H315.562667c-29.184 0-46.592 19.456-50.346667 37.376l-58.88 275.797334zM231.424 691.882667c-46.08 0-83.626667-37.546667-83.626667-83.626667s37.546667-83.626667 83.626667-83.626667 83.626667 37.546667 83.626667 83.626667-37.546667 83.626667-83.626667 83.626667z m0-133.12c-27.306667 0-49.493333 22.186667-49.493333 49.493333s22.186667 49.493333 49.493333 49.493333 49.493333-22.186667 49.493333-49.493333-22.186667-49.493333-49.493333-49.493333z"  /><path d="M802.304 608.256m-66.56 0a66.56 66.56 0 1 0 133.12 0 66.56 66.56 0 1 0-133.12 0Z" fill="#7DE5DB" /><path d="M801.109333 691.882667c-46.08 0-83.626667-37.546667-83.626666-83.626667s37.546667-83.626667 83.626666-83.626667 83.626667 37.546667 83.626667 83.626667-37.546667 83.626667-83.626667 83.626667z m0-133.12c-27.306667 0-49.493333 22.186667-49.493333 49.493333s22.186667 49.493333 49.493333 49.493333 49.493333-22.186667 49.493334-49.493333-22.186667-49.493333-49.493334-49.493333zM641.877333 661.674667H387.754667c-9.386667 0-17.066667-7.68-17.066667-17.066667s7.68-17.066667 17.066667-17.066667h254.122666c9.386667 0 17.066667 7.68 17.066667 17.066667s-7.68 17.066667-17.066667 17.066667zM641.877333 588.970667H387.754667c-9.386667 0-17.066667-7.68-17.066667-17.066667s7.68-17.066667 17.066667-17.066667h254.122666c9.386667 0 17.066667 7.68 17.066667 17.066667s-7.68 17.066667-17.066667 17.066667zM243.541333 930.304h-62.122666c-37.717333 0-68.266667-30.549333-68.266667-68.266667v-107.349333h198.656v107.349333c0 37.717333-30.549333 68.266667-68.266667 68.266667z m-96.256-141.482667v73.216c0 18.773333 15.36 34.133333 34.133334 34.133334h62.122666c18.773333 0 34.133333-15.36 34.133334-34.133334v-73.216H147.285333zM838.656 930.304H776.533333c-37.717333 0-68.266667-30.549333-68.266666-68.266667v-107.349333h198.656v107.349333c0 37.717333-30.549333 68.266667-68.266667 68.266667zM742.4 788.821333v73.216c0 18.773333 15.36 34.133333 34.133333 34.133334h62.122667c18.773333 0 34.133333-15.36 34.133333-34.133334v-73.216H742.4zM934.570667 379.904h-92.501334c-9.728 0-18.090667-3.754667-23.552-10.410667-5.12-6.144-7.168-14.336-5.632-22.357333l0.341334-1.365333 10.581333-38.4c6.826667-22.186667 22.357333-24.576 28.842667-24.576h82.090666c16.213333 0 29.525333 13.312 29.525334 29.525333v37.888c-0.170667 16.384-13.482667 29.696-29.696 29.696z m-86.016-34.133333h81.408v-28.672h-73.557334v0.170666l-7.850666 28.501334z m-6.656 0zM191.146667 379.904H98.645333c-16.213333 0-29.525333-13.312-29.525333-29.525333v-37.888c0-16.213333 13.312-29.525333 29.525333-29.525334h82.090667c6.314667 0 22.016 2.389333 28.842667 24.576l0.170666 0.512 10.752 39.253334c1.536 8.021333-0.512 16.213333-5.632 22.357333-5.632 6.485333-13.994667 10.24-23.722666 10.24z m-87.893334-34.133333h81.408l-7.850666-28.501334v-0.170666H103.253333v28.672z m88.064 0zM600.746667 846.677333H414.72c-18.773333 0-34.133333-15.36-34.133333-34.133333v-57.856h254.293333v57.856c0 18.773333-15.36 34.133333-34.133333 34.133333z m-186.026667-57.856v23.722667h186.026667v-23.722667H414.72z"  /></svg>